<svg xmlns="http://www.w3.org/2000/svg" version="1.1" xmlns:xlink="http://www.w3.org/1999/xlink" xmlns:svgjs="http://svgjs.com/svgjs" transform="rotate(180)" width="5000" height="1000" preserveAspectRatio="none" viewBox="0 0 5000 1000"><g mask="url(&quot;#SvgjsMask1069&quot;)" fill="none"><rect width="5000" height="1000" x="0" y="0" fill="rgba(255, 255, 255, 1)"></rect><path d="M 0,60 C 200,123.2 600,375.8 1000,376 C 1400,376.2 1600,78.8 2000,61 C 2400,43.2 2600,266.8 3000,287 C 3400,307.2 3600,150 4000,162 C 4400,174 4800,310 5000,347L5000 1000L0 1000z" fill="rgb(128,187,194)"></path><path d="M 0,881 C 333.4,805.4 1000.2,514.8 1667,503 C 2333.8,491.2 2667.4,812 3334,822 C 4000.6,832 4666.8,606.8 5000,553L5000 1000L0 1000z" fill="rgba(0, 119, 132, 1)"></path></g><defs><mask id="SvgjsMask1069"><rect width="5000" height="1000" fill="#fcfcfc"></rect></mask></defs></svg>